<!DOCTYPE svg PUBLIC "-//W3C//DTD SVG 1.1//EN" "http://www.w3.org/Graphics/SVG/1.1/DTD/svg11.dtd">
<!-- Uploaded to: SVG Repo, www.svgrepo.com, Transformed by: SVG Repo Mixer Tools -->
<svg fill="#000000" version="1.1" id="Capa_1" xmlns="http://www.w3.org/2000/svg" xmlns:xlink="http://www.w3.org/1999/xlink" width="800px" height="800px" viewBox="0 0 38.45 38.451" xml:space="preserve">
<g id="SVGRepo_bgCarrier" stroke-width="0"/>
<g id="SVGRepo_tracerCarrier" stroke-linecap="round" stroke-linejoin="round"/>
<g id="SVGRepo_iconCarrier"> <g> <g> <polygon points="38.434,31.208 36.118,31.217 36.114,30.152 34.987,30.158 34.934,14.32 36.061,14.316 36.057,13.127 28.795,13.151 28.799,14.341 29.926,14.337 29.979,30.173 28.852,30.177 28.855,31.242 22.848,31.26 22.844,30.199 21.717,30.201 21.664,14.364 22.791,14.36 22.787,13.172 15.526,13.195 15.53,14.385 16.657,14.381 16.709,30.217 15.582,30.221 15.585,31.287 9.578,31.304 9.574,30.242 8.447,30.246 8.394,14.408 9.521,14.404 9.517,13.215 2.256,13.239 2.26,14.429 3.387,14.425 3.439,30.261 2.313,30.265 2.316,31.33 0,31.335 0.017,36.595 38.45,36.468 "/> <polygon points="36.866,11.434 36.854,7.804 18.681,1.855 1.425,7.922 1.562,11.551 "/> </g> </g> </g>
</svg>