<svg width="32" height="32" viewBox="0 0 32 32" fill="none" xmlns="http://www.w3.org/2000/svg">
<path d="M16 24.381C14.9391 24.381 13.9217 24.0599 13.1716 23.4883C12.4214 22.9168 12 22.1416 12 21.3333C12 19.6419 13.78 18.2857 16 18.2857C17.0609 18.2857 18.0783 18.6068 18.8284 19.1783C19.5786 19.7499 20 20.5251 20 21.3333C20 22.1416 19.5786 22.9168 18.8284 23.4883C18.0783 24.0599 17.0609 24.381 16 24.381ZM28 28.9524V13.7143H4V28.9524H28ZM28 10.6667C29.0609 10.6667 30.0783 10.9878 30.8284 11.5593C31.5786 12.1308 32 12.906 32 13.7143V28.9524C32 29.7607 31.5786 30.5358 30.8284 31.1074C30.0783 31.6789 29.0609 32 28 32H4C2.93913 32 1.92172 31.6789 1.17157 31.1074C0.421427 30.5358 0 29.7607 0 28.9524V13.7143C0 12.0229 1.78 10.6667 4 10.6667H6V7.61905C6 5.59835 7.05357 3.66042 8.92893 2.23157C10.8043 0.802719 13.3478 0 16 0C17.3132 0 18.6136 0.197073 19.8268 0.579966C21.0401 0.962858 22.1425 1.52407 23.0711 2.23157C23.9997 2.93906 24.7362 3.77898 25.2388 4.70336C25.7413 5.62775 26 6.6185 26 7.61905V10.6667H28ZM16 3.04762C14.4087 3.04762 12.8826 3.52925 11.7574 4.38656C10.6321 5.24387 10 6.40663 10 7.61905V10.6667H22V7.61905C22 6.40663 21.3679 5.24387 20.2426 4.38656C19.1174 3.52925 17.5913 3.04762 16 3.04762Z" fill="#F8F8F8"/>
</svg>
