<!DOCTYPE svg PUBLIC "-//W3C//DTD SVG 1.1//EN" "http://www.w3.org/Graphics/SVG/1.1/DTD/svg11.dtd">
<!-- Uploaded to: SVG Repo, www.svgrepo.com, Transformed by: SVG Repo Mixer Tools -->
<svg fill="#ffffff" width="800px" height="800px" viewBox="0 0 256 256" id="Flat" xmlns="http://www.w3.org/2000/svg">
<g id="SVGRepo_bgCarrier" stroke-width="0"/>
<g id="SVGRepo_tracerCarrier" stroke-linecap="round" stroke-linejoin="round"/>
<g id="SVGRepo_iconCarrier"> <path d="M180.00781,72h-144a20.02229,20.02229,0,0,0-20,20V204a20.02229,20.02229,0,0,0,20,20h144a20.02229,20.02229,0,0,0,20-20V92A20.02229,20.02229,0,0,0,180.00781,72Zm-4,128h-136V96h136Zm64-148V176a12,12,0,0,1-24,0V56h-152a12,12,0,0,1,0-24h156A20.02229,20.02229,0,0,1,240.00781,52Z"/> </g>
</svg>