<svg width="40" height="40" viewBox="0 0 40 40" fill="none" xmlns="http://www.w3.org/2000/svg">
<path d="M17.5001 31.25H35.0001V33.75H17.5001V31.25ZM8.9626 32.5L5.7376 35.725L7.5001 37.5L12.5001 32.5L7.5001 27.5L5.7251 29.2625L8.9626 32.5ZM17.5001 18.75H35.0001V21.25H17.5001V18.75ZM8.9626 20L5.7376 23.225L7.5001 25L12.5001 20L7.5001 15L5.7251 16.7625L8.9626 20ZM17.5001 6.25H35.0001V8.75H17.5001V6.25ZM8.9626 7.5L5.7376 10.725L7.5001 12.5L12.5001 7.5L7.5001 2.5L5.7251 4.2625L8.9626 7.5Z" fill="white"/>
</svg>
