<svg xmlns="http://www.w3.org/2000/svg" xmlns:xlink="http://www.w3.org/1999/xlink" viewBox="0,0,256,256" width="512px" height="512px" fill-rule="nonzero"><g fill="#ffffff" fill-rule="nonzero" stroke="none" stroke-width="1" stroke-linecap="butt" stroke-linejoin="miter" stroke-miterlimit="10" stroke-dasharray="" stroke-dashoffset="0" font-family="none" font-weight="none" font-size="none" text-anchor="none" style="mix-blend-mode: normal"><g transform="scale(4,4)"><path d="M7.05078,6c0,3.5 1,6.5 3,8c-1.5,-0.5 -2.5,-0.5 -4,0c0,2.5 0.5,4.5 3,7c-2,-0.5 -3.5,0 -3.5,0c0,2.83 2.93875,6.31906 6.71875,7.53906c0.29,-1.93 0.84062,-3.83898 1.64063,-5.70898c0.06,-0.15 0.12922,-0.29922 0.19922,-0.44922c-0.61,-2.5 0.94141,-7.23086 0.94141,-9.38086c0,-4 -3.5,-7 -8,-7zM32,6c-8.09,4.04 -13.00008,9.45 -15.33008,15c-1.04765,2.46289 -1.5749,4.95061 -1.6543,7.36328l-0.01562,0.01563v0.62109c0.086,3.832 -0.01097,7.62044 -0.79297,11.27344c-0.76,3.647 -2.25609,7.11838 -4.49609,10.10937l-0.57227,0.76367l0.67578,0.58398c1.605,1.385 3.26792,2.38755 5.04492,3.31055c1.769,0.902 3.60905,1.64828 5.49805,2.23828c1.76142,0.53643 3.55997,0.94084 5.375,1.22461c0.48159,0.31263 1.04281,0.49609 1.62891,0.49609h9.27734c0.53988,0 1.05391,-0.15998 1.50977,-0.42773c1.8764,-0.26392 3.73968,-0.6512 5.56836,-1.18164c1.895,-0.579 3.75244,-1.29675 5.52344,-2.21875c0.884,-0.463 1.75308,-0.96211 2.58008,-1.53711c0.42,-0.276 0.82361,-0.58444 1.22461,-0.89844c0.198,-0.163 0.39684,-0.31714 0.58984,-0.49414l0.29297,-0.26172l0.14453,-0.13867l0.03711,-0.03516l0.01758,-0.01953c0.014,-0.012 0.06961,-0.06938 0.09961,-0.10937c0.148,-0.179 0.24648,-0.43072 0.27148,-0.63672c-0.267,-0.566 -0.5937,-1.17733 -0.9707,-1.73633l-0.14062,-0.20703l-0.09375,-0.15234l-0.18164,-0.29687l-0.36523,-0.5957c-0.466,-0.804 -0.89663,-1.62651 -1.26562,-2.47852c-0.75,-1.697 -1.30441,-3.47778 -1.69141,-5.30078c-0.779,-3.653 -0.87506,-7.44144 -0.78906,-11.27344v-0.62109l-0.01562,-0.01562c-0.0794,-2.41267 -0.60665,-4.90039 -1.6543,-7.36328c-2.33,-5.55 -7.24008,-10.96 -15.33008,-15zM57,6c-4.5,0 -8,3 -8,7c0,2.18 1.57992,6.97922 0.91992,9.44922c0.07,0.13 0.11969,0.26063 0.17969,0.39063c0.79,1.86 1.34086,3.7807 1.63086,5.7207c3.8,-1.21 6.76953,-4.72055 6.76953,-7.56055c0,0 -1.5,-0.5 -3.5,0c2.5,-2.5 3,-4.5 3,-7c-1.5,-0.5 -2.5,-0.5 -4,0c2,-1.5 3,-4.5 3,-8zM28.10547,11.21094l1.78906,3.57617c-1.578,0.705 -3.05917,1.81702 -4.32617,3.16602c-1.272,1.352 -2.33627,2.94225 -3.19727,4.65625l-2.74023,-1.21875c0.814,-2.017 1.8862,-3.96475 3.2832,-5.71875c1.396,-1.75 3.11341,-3.31394 5.19141,-4.46094zM21,29h7.13086c0.45564,1.76469 2.04658,2.99825 3.86914,3c1.82256,-0.00175 3.4135,-1.23531 3.86914,-3h7.13086v3.66016c-2.56029,-1.47099 -6.59542,-0.09655 -8,0.83984l1.47266,2.45508c-0.30329,0.40128 -0.47266,0.78858 -0.47266,1.04492c0.67764,-0.54211 1.35223,-0.92874 2,-1.2168c0.018,0.67736 0.57241,1.21704 1.25,1.2168c0.45051,-0.00025 0.86603,-0.24291 1.08762,-0.63515c0.2216,-0.39224 0.21498,-0.87338 -0.01731,-1.25938c0.71777,-0.10547 1.30469,-0.10547 1.67969,-0.10547c-1.6264,-0.92937 -3.03215,-0.77366 -4.07617,-0.24609c1.61045,-1.02365 3.78723,-1.59368 5.07617,-1.71875v13.34961c0,0.163 -0.02055,0.32637 -0.06055,0.48438l-0.55664,2.23242c-0.077,0.306 -0.22755,0.59403 -0.43555,0.83203l-5.30859,6.06641h-9.27734l-5.30859,-6.06641c-0.208,-0.238 -0.35955,-0.52603 -0.43555,-0.83203l-0.55664,-2.23242c-0.04,-0.159 -0.06055,-0.32137 -0.06055,-0.48437v-13.34961c1.28894,0.12507 3.46573,0.6951 5.07617,1.71875c-1.04402,-0.52757 -2.44978,-0.68328 -4.07617,0.24609c0.375,0 0.96191,0 1.67969,0.10547c-0.23229,0.386 -0.23891,0.86714 -0.01731,1.25938c0.2216,0.39224 0.63711,0.6349 1.08762,0.63515c0.67684,-0.00082 1.23007,-0.5402 1.24805,-1.2168c0.64828,0.28812 1.32372,0.67421 2.00195,1.2168c0,-0.25635 -0.16936,-0.64364 -0.47266,-1.04492l1.47266,-2.45508c-1.40458,-0.93639 -5.43971,-2.31083 -8,-0.83984zM18,29.62109v16.76367c0,0.409 0.04944,0.81589 0.14844,1.21289l0.55859,2.23242c0.192,0.77 0.56489,1.48308 1.08789,2.08008l3.5918,4.10352c-0.81797,-0.18878 -1.631,-0.40041 -2.43359,-0.64453c-1.785,-0.557 -3.51873,-1.26242 -5.17773,-2.10742c-1.35855,-0.69586 -2.70976,-1.52404 -3.88281,-2.42969c2.23613,-2.95387 3.84496,-6.39771 4.75195,-9.98437c0.95678,-3.69759 1.23433,-7.49217 1.33203,-11.20312zM46,29.62109l0.02344,0.02344c0.0977,3.7118 0.37626,7.50553 1.33398,11.20313c0.502,1.952 1.19089,3.86664 2.08789,5.68164c0.442,0.91 0.95114,1.78963 1.49414,2.64063l0.42188,0.62891l0.21094,0.3125l0.10352,0.1543l0.07227,0.08594c0.14028,0.15879 0.31871,0.29316 0.51367,0.43359c-0.14913,0.1326 -0.30806,0.25982 -0.46484,0.38867c-0.357,0.278 -0.71952,0.55659 -1.10352,0.80859c-0.752,0.524 -1.55795,0.98506 -2.37695,1.41406c-1.643,0.856 -3.38592,1.53017 -5.16992,2.07617c-0.86918,0.25176 -1.74781,0.46861 -2.63477,0.65625l3.69336,-4.2207c0.522,-0.597 0.89489,-1.31008 1.08789,-2.08008l0.55859,-2.23242c0.099,-0.395 0.14844,-0.80294 0.14844,-1.21094zM29,46l-2,2h10l-2,-2zM29,50l1,2h4l1,-2z"></path></g></g></svg>