<?xml version="1.0" standalone="no"?>
<!DOCTYPE svg PUBLIC "-//W3C//DTD SVG 20010904//EN" "http://www.w3.org/TR/2001/REC-SVG-20010904/DTD/svg10.dtd">
<svg version="1.0" xmlns="http://www.w3.org/2000/svg" width="397.000000pt" height="522.000000pt"
    viewBox="0 0 397.000000 522.000000" preserveAspectRatio="xMidYMid meet">

    <g transform="translate(0.000000,522.000000) scale(0.100000,-0.100000)" fill="white" stroke="none">
        <path d="M3366 5164 c-100 -20 -216 -60 -277 -97 -59 -36 -2870 -2217 -2932
-2276 -60 -56 -80 -103 -81 -193 -1 -69 2 -80 29 -119 41 -58 2911 -2294 3002
-2339 229 -113 520 -133 691 -46 122 62 145 170 57 273 -19 22 -669 535 -1445
1138 -775 604 -1410 1101 -1410 1104 1 3 638 501 1417 1106 778 605 1430 1117
1448 1138 112 130 40 263 -167 312 -77 18 -239 18 -332 -1z" />
    </g>
</svg>