<svg width="546" height="133" viewBox="0 0 546 133" fill="none" xmlns="http://www.w3.org/2000/svg">
<g filter="url(#filter0_d_293_923)">
<path d="M20 40C20 23.4315 33.4315 10 50 10H496C512.569 10 526 23.4315 526 40V73C526 89.5685 512.569 103 496 103H50C33.4315 103 20 89.5685 20 73V40Z" fill="#757585"/>
<path d="M22.5 40C22.5 24.8122 34.8122 12.5 50 12.5H496C511.188 12.5 523.5 24.8122 523.5 40V73C523.5 88.1878 511.188 100.5 496 100.5H50C34.8122 100.5 22.5 88.1878 22.5 73V40Z" stroke="#140A3D" stroke-width="5"/>
</g>
<path d="M207.528 70V40.9091H213.679V64.929H226.151V70H207.528ZM255.824 55.4545C255.824 58.6269 255.223 61.3258 254.02 63.5511C252.827 65.7765 251.198 67.4763 249.134 68.6506C247.079 69.8153 244.768 70.3977 242.202 70.3977C239.616 70.3977 237.296 69.8106 235.241 68.6364C233.187 67.4621 231.563 65.7623 230.369 63.5369C229.176 61.3116 228.58 58.6174 228.58 55.4545C228.58 52.2822 229.176 49.5833 230.369 47.358C231.563 45.1326 233.187 43.4375 235.241 42.2727C237.296 41.0985 239.616 40.5114 242.202 40.5114C244.768 40.5114 247.079 41.0985 249.134 42.2727C251.198 43.4375 252.827 45.1326 254.02 47.358C255.223 49.5833 255.824 52.2822 255.824 55.4545ZM249.588 55.4545C249.588 53.3996 249.28 51.6667 248.665 50.2557C248.059 48.8447 247.202 47.7746 246.094 47.0455C244.986 46.3163 243.688 45.9517 242.202 45.9517C240.715 45.9517 239.418 46.3163 238.31 47.0455C237.202 47.7746 236.34 48.8447 235.724 50.2557C235.118 51.6667 234.815 53.3996 234.815 55.4545C234.815 57.5095 235.118 59.2424 235.724 60.6534C236.34 62.0644 237.202 63.1345 238.31 63.8636C239.418 64.5928 240.715 64.9574 242.202 64.9574C243.688 64.9574 244.986 64.5928 246.094 63.8636C247.202 63.1345 248.059 62.0644 248.665 60.6534C249.28 59.2424 249.588 57.5095 249.588 55.4545ZM279.67 50.3125C279.471 49.6212 279.192 49.0104 278.832 48.4801C278.472 47.9403 278.031 47.4858 277.511 47.1165C276.999 46.7377 276.412 46.4489 275.749 46.25C275.096 46.0511 274.371 45.9517 273.576 45.9517C272.089 45.9517 270.782 46.321 269.656 47.0597C268.538 47.7983 267.667 48.8731 267.042 50.2841C266.417 51.6856 266.104 53.3996 266.104 55.4261C266.104 57.4527 266.412 59.1761 267.028 60.5966C267.643 62.017 268.514 63.1013 269.641 63.8494C270.768 64.5881 272.099 64.9574 273.633 64.9574C275.025 64.9574 276.213 64.7112 277.198 64.2188C278.192 63.7169 278.95 63.0114 279.471 62.1023C280.001 61.1932 280.266 60.1184 280.266 58.8778L281.516 59.0625H274.016V54.4318H286.19V58.0966C286.19 60.6534 285.65 62.8504 284.57 64.6875C283.491 66.5152 282.004 67.9261 280.11 68.9205C278.216 69.9053 276.048 70.3977 273.604 70.3977C270.877 70.3977 268.481 69.7964 266.417 68.5938C264.353 67.3816 262.743 65.6629 261.587 63.4375C260.442 61.2027 259.869 58.5511 259.869 55.483C259.869 53.125 260.21 51.0227 260.891 49.1761C261.583 47.3201 262.549 45.7481 263.789 44.4602C265.03 43.1723 266.474 42.1922 268.121 41.5199C269.769 40.8475 271.554 40.5114 273.477 40.5114C275.124 40.5114 276.658 40.7528 278.079 41.2358C279.499 41.7093 280.759 42.3816 281.857 43.2528C282.965 44.1241 283.87 45.161 284.57 46.3636C285.271 47.5568 285.721 48.8731 285.92 50.3125H279.67ZM296.96 40.9091V70H290.81V40.9091H296.96ZM326.353 40.9091V70H321.04L308.384 51.6903H308.171V70H302.021V40.9091H307.418L319.975 59.2045H320.231V40.9091H326.353Z" fill="black"/>
<defs>
<filter id="filter0_d_293_923" x="0" y="0" width="546" height="133" filterUnits="userSpaceOnUse" color-interpolation-filters="sRGB">
<feFlood flood-opacity="0" result="BackgroundImageFix"/>
<feColorMatrix in="SourceAlpha" type="matrix" values="0 0 0 0 0 0 0 0 0 0 0 0 0 0 0 0 0 0 127 0" result="hardAlpha"/>
<feOffset dy="10"/>
<feGaussianBlur stdDeviation="10"/>
<feComposite in2="hardAlpha" operator="out"/>
<feColorMatrix type="matrix" values="0 0 0 0 0 0 0 0 0 0 0 0 0 0 0 0 0 0 0.37 0"/>
<feBlend mode="normal" in2="BackgroundImageFix" result="effect1_dropShadow_293_923"/>
<feBlend mode="normal" in="SourceGraphic" in2="effect1_dropShadow_293_923" result="shape"/>
</filter>
</defs>
</svg>
