<svg width="69" height="75" viewBox="0 0 69 75" fill="none" xmlns="http://www.w3.org/2000/svg">
<path d="M11.5 56.25C10.6854 56.25 10.0031 55.95 9.453 55.35C8.901 54.7521 8.625 54.0104 8.625 53.125C8.625 52.2396 8.901 51.4979 9.453 50.9C10.0031 50.3 10.6854 50 11.5 50H57.5C58.3146 50 58.9969 50.3 59.547 50.9C60.099 51.4979 60.375 52.2396 60.375 53.125C60.375 54.0104 60.099 54.7521 59.547 55.35C58.9969 55.95 58.3146 56.25 57.5 56.25H11.5ZM11.5 40.625C10.6854 40.625 10.0031 40.325 9.453 39.725C8.901 39.1271 8.625 38.3854 8.625 37.5C8.625 36.6146 8.901 35.8719 9.453 35.2719C10.0031 34.674 10.6854 34.375 11.5 34.375H57.5C58.3146 34.375 58.9969 34.674 59.547 35.2719C60.099 35.8719 60.375 36.6146 60.375 37.5C60.375 38.3854 60.099 39.1271 59.547 39.725C58.9969 40.325 58.3146 40.625 57.5 40.625H11.5ZM11.5 25C10.6854 25 10.0031 24.701 9.453 24.1031C8.901 23.5031 8.625 22.7604 8.625 21.875C8.625 20.9896 8.901 20.2469 9.453 19.6469C10.0031 19.049 10.6854 18.75 11.5 18.75H57.5C58.3146 18.75 58.9969 19.049 59.547 19.6469C60.099 20.2469 60.375 20.9896 60.375 21.875C60.375 22.7604 60.099 23.5031 59.547 24.1031C58.9969 24.701 58.3146 25 57.5 25H11.5Z" fill="white"/>
</svg>
