<!DOCTYPE svg PUBLIC "-//W3C//DTD SVG 1.1//EN" "http://www.w3.org/Graphics/SVG/1.1/DTD/svg11.dtd">
<!-- Uploaded to: SVG Repo, www.svgrepo.com, Transformed by: SVG Repo Mixer Tools -->
<svg fill="#000000" width="800px" height="800px" viewBox="0 0 24 24" xmlns="http://www.w3.org/2000/svg" enable-background="new 0 0 24 24">
<g id="SVGRepo_bgCarrier" stroke-width="0"/>
<g id="SVGRepo_tracerCarrier" stroke-linecap="round" stroke-linejoin="round"/>
<g id="SVGRepo_iconCarrier">
<path d="M17,9V7c0-2.8-2.2-5-5-5S7,4.2,7,7v2c-1.7,0-3,1.3-3,3v7c0,1.7,1.3,3,3,3h10c1.7,0,3-1.3,3-3v-7C20,10.3,18.7,9,17,9z M9,7c0-1.7,1.3-3,3-3s3,1.3,3,3v2H9V7z M13.1,15.5c0,0-0.1,0.1-0.1,0.1V17c0,0.6-0.4,1-1,1s-1-0.4-1-1v-1.4c-0.6-0.6-0.7-1.5-0.1-2.1c0.6-0.6,1.5-0.7,2.1-0.1C13.6,13.9,13.7,14.9,13.1,15.5z"/>
</g>
</svg>