<svg width="85" height="83" viewBox="0 0 85 83" fill="none" xmlns="http://www.w3.org/2000/svg">
<g filter="url(#filter0_d_190_949)">
<path d="M42.5 0C37.4441 0 32.4377 0.969966 27.7667 2.85452C23.0957 4.73907 18.8514 7.5013 15.2764 10.9835C8.05624 18.0161 4 27.5544 4 37.5C4 47.4456 8.05624 56.9839 15.2764 64.0165C18.8514 67.4987 23.0957 70.2609 27.7667 72.1455C32.4377 74.03 37.4441 75 42.5 75C52.7108 75 62.5035 71.0491 69.7236 64.0165C76.9438 56.9839 81 47.4456 81 37.5C81 32.5754 80.0042 27.6991 78.0694 23.1494C76.1346 18.5997 73.2987 14.4657 69.7236 10.9835C66.1486 7.5013 61.9043 4.73907 57.2333 2.85452C52.5623 0.969966 47.5559 0 42.5 0ZM23.5195 61.05C25.175 57.675 35.262 54.375 42.5 54.375C49.738 54.375 59.825 57.675 61.4805 61.05C56.0881 65.2351 49.3949 67.5096 42.5 67.5C35.339 67.5 28.7555 65.1 23.5195 61.05ZM66.986 55.6125C61.4805 49.0875 48.121 46.875 42.5 46.875C36.879 46.875 23.5195 49.0875 18.014 55.6125C13.9183 50.4173 11.6987 44.0501 11.7 37.5C11.7 20.9625 25.5215 7.5 42.5 7.5C59.4785 7.5 73.3 20.9625 73.3 37.5C73.3 44.325 70.913 50.625 66.986 55.6125ZM42.5 15C35.031 15 29.025 20.85 29.025 28.125C29.025 35.4 35.031 41.25 42.5 41.25C49.969 41.25 55.975 35.4 55.975 28.125C55.975 20.85 49.969 15 42.5 15ZM42.5 33.75C40.9684 33.75 39.4995 33.1574 38.4165 32.1025C37.3334 31.0476 36.725 29.6168 36.725 28.125C36.725 26.6332 37.3334 25.2024 38.4165 24.1475C39.4995 23.0926 40.9684 22.5 42.5 22.5C44.0316 22.5 45.5005 23.0926 46.5835 24.1475C47.6666 25.2024 48.275 26.6332 48.275 28.125C48.275 29.6168 47.6666 31.0476 46.5835 32.1025C45.5005 33.1574 44.0316 33.75 42.5 33.75Z" fill="white"/>
</g>
<defs>
<filter id="filter0_d_190_949" x="0" y="0" width="85" height="83" filterUnits="userSpaceOnUse" color-interpolation-filters="sRGB">
<feFlood flood-opacity="0" result="BackgroundImageFix"/>
<feColorMatrix in="SourceAlpha" type="matrix" values="0 0 0 0 0 0 0 0 0 0 0 0 0 0 0 0 0 0 127 0" result="hardAlpha"/>
<feOffset dy="4"/>
<feGaussianBlur stdDeviation="2"/>
<feComposite in2="hardAlpha" operator="out"/>
<feColorMatrix type="matrix" values="0 0 0 0 0 0 0 0 0 0 0 0 0 0 0 0 0 0 0.25 0"/>
<feBlend mode="normal" in2="BackgroundImageFix" result="effect1_dropShadow_190_949"/>
<feBlend mode="normal" in="SourceGraphic" in2="effect1_dropShadow_190_949" result="shape"/>
</filter>
</defs>
</svg>
