<?xml version="1.0" standalone="no"?>
<!DOCTYPE svg PUBLIC "-//W3C//DTD SVG 20010904//EN" "http://www.w3.org/TR/2001/REC-SVG-20010904/DTD/svg10.dtd">
<svg version="1.0" xmlns="http://www.w3.org/2000/svg" width="414.000000pt" height="528.000000pt"
    viewBox="0 0 414.000000 528.000000" preserveAspectRatio="xMidYMid meet">

    <g transform="translate(0.000000,528.000000) scale(0.100000,-0.100000)" fill="white" stroke="none">
        <path d="M473 5186 c-83 -19 -160 -62 -189 -106 -36 -52 -33 -123 7 -183 24
-36 334 -282 1460 -1158 l1429 -1112 -62 -48 c-35 -27 -677 -527 -1428 -1111
-1480 -1153 -1423 -1105 -1423 -1202 0 -115 122 -191 324 -203 164 -10 372 35
497 107 77 45 2888 2232 2947 2294 30 31 56 69 63 92 17 58 -1 153 -42 210
-23 32 -423 349 -1476 1170 -1561 1215 -1519 1185 -1705 1234 -105 28 -313 36
-402 16z" />
    </g>
</svg>