<svg width="35" height="35" viewBox="0 0 35 35" fill="none" xmlns="http://www.w3.org/2000/svg">
<path d="M31.6193 34.4523L20.483 23.3001C19.4886 24.0967 18.3452 24.7274 17.0526 25.192C15.7599 25.6567 14.3845 25.889 12.9261 25.889C9.31345 25.889 6.25625 24.6364 3.75455 22.1312C1.25152 19.6246 0 16.5624 0 12.9445C0 9.32669 1.25152 6.26449 3.75455 3.75789C6.25625 1.25263 9.31345 0 12.9261 0C16.5388 0 19.5967 1.25263 22.0997 3.75789C24.6014 6.26449 25.8523 9.32669 25.8523 12.9445C25.8523 14.4049 25.6203 15.7824 25.1562 17.0768C24.6922 18.3713 24.0625 19.5164 23.267 20.5121L34.4531 31.7141C34.8177 32.0792 35 32.5273 35 33.0583C35 33.5894 34.8011 34.054 34.4034 34.4523C34.0388 34.8174 33.5748 35 33.0114 35C32.4479 35 31.9839 34.8174 31.6193 34.4523ZM12.9261 21.9061C15.4119 21.9061 17.5252 21.0352 19.2659 19.2933C21.0053 17.5501 21.875 15.4339 21.875 12.9445C21.875 10.4552 21.0053 8.33893 19.2659 6.59573C17.5252 4.85386 15.4119 3.98293 12.9261 3.98293C10.4403 3.98293 8.32708 4.85386 6.58636 6.59573C4.84697 8.33893 3.97727 10.4552 3.97727 12.9445C3.97727 15.4339 4.84697 17.5501 6.58636 19.2933C8.32708 21.0352 10.4403 21.9061 12.9261 21.9061Z" fill="black"/>
</svg>
