<svg width="204" height="202" viewBox="0 0 204 202" fill="none" xmlns="http://www.w3.org/2000/svg">
<ellipse cx="102" cy="101" rx="102" ry="101" fill="#140A3D"/>
<path d="M102 61C107.304 61 112.391 63.1071 116.142 66.8579C119.893 70.6086 122 75.6957 122 81C122 86.3043 119.893 91.3914 116.142 95.1421C112.391 98.8929 107.304 101 102 101C96.6957 101 91.6086 98.8929 87.8579 95.1421C84.1071 91.3914 82 86.3043 82 81C82 75.6957 84.1071 70.6086 87.8579 66.8579C91.6086 63.1071 96.6957 61 102 61ZM102 111C124.1 111 142 119.95 142 131V141H62V131C62 119.95 79.9 111 102 111Z" fill="#F8F8F8"/>
</svg>
